<?xml version="1.0" standalone="no"?>
<!DOCTYPE svg PUBLIC "-//W3C//DTD SVG 20010904//EN"
 "http://www.w3.org/TR/2001/REC-SVG-20010904/DTD/svg10.dtd">
<svg version="1.0" xmlns="http://www.w3.org/2000/svg"
 width="231.000000pt" height="364.000000pt" viewBox="0 0 231.000000 364.000000"
 preserveAspectRatio="xMidYMid meet">
<metadata>
Created by potrace 1.10, written by Peter Selinger 2001-2011
</metadata>
<g transform="translate(0.000000,364.000000) scale(0.100000,-0.100000)"
fill="#48a548" stroke="none">
<path d="M111 3594 c-34 -131 -44 -179 -66 -309 -63 -372 -54 -751 26 -1065
161 -629 618 -1054 1320 -1230 135 -33 330 -70 341 -63 16 9 30 123 25 203
-22 314 -267 697 -702 1093 -100 91 -319 273 -440 365 l-30 22 55 -21 c78 -29
330 -151 425 -206 379 -218 676 -496 812 -758 137 -267 148 -509 37 -826 -87
-251 -222 -464 -429 -678 l-110 -114 60 38 c99 63 121 78 227 166 312 258 534
625 608 1006 26 132 41 384 29 495 -23 224 -136 452 -316 639 -218 226 -456
367 -878 519 -329 119 -670 370 -908 670 -32 41 -63 79 -67 84 -5 5 -13 -9
-19 -30z"/>
</g>
</svg>
